<?xml version="1.0" standalone="no"?>
<!DOCTYPE svg PUBLIC "-//W3C//DTD SVG 20010904//EN"
 "http://www.w3.org/TR/2001/REC-SVG-20010904/DTD/svg10.dtd">
<svg version="1.0" xmlns="http://www.w3.org/2000/svg"
 width="674.000000pt" height="674.000000pt" viewBox="0 0 674.000000 674.000000"
 preserveAspectRatio="xMidYMid meet">
<metadata>
Created by potrace 1.14, written by Peter Selinger 2001-2017
</metadata>
<g transform="translate(0.000000,674.000000) scale(0.100000,-0.100000)"
fill="#000000" stroke="none">
<path d="M3105 6730 c-619 -48 -1254 -288 -1753 -662 -687 -515 -1150 -1270
-1301 -2118 -36 -204 -46 -329 -46 -580 0 -329 26 -537 105 -845 64 -248 126
-414 246 -655 333 -670 853 -1188 1519 -1515 358 -176 641 -263 1060 -327 129
-19 190 -22 435 -22 300 0 422 11 685 66 466 96 954 316 1335 602 686 514
1158 1287 1300 2126 37 220 45 324 45 570 0 329 -26 537 -105 845 -66 258
-128 420 -259 680 -498 987 -1451 1664 -2556 1816 -163 22 -541 32 -710 19z
m585 -1810 c859 -78 1548 -451 1713 -928 42 -122 49 -245 45 -777 l-3 -450
-27 -76 c-41 -117 -92 -195 -197 -299 -108 -108 -199 -173 -352 -253 -818
-429 -2190 -429 -3008 0 -153 80 -244 145 -351 253 -108 107 -156 179 -197
295 l-28 80 -3 451 c-4 536 4 664 47 783 172 472 855 842 1696 920 132 12 532
13 665 1z"/>
<path d="M3075 4669 c-355 -33 -674 -118 -950 -253 -370 -181 -574 -409 -575
-642 0 -145 58 -264 194 -399 107 -107 206 -175 371 -255 257 -125 558 -205
915 -241 148 -16 522 -16 670 0 575 59 1029 236 1296 505 76 76 99 108 135
182 44 89 44 89 44 200 0 110 0 111 -44 199 -84 170 -259 320 -526 451 -284
138 -594 220 -965 254 -133 12 -434 11 -565 -1z m581 -199 c557 -45 949 -183
1154 -407 159 -174 153 -379 -18 -550 -143 -143 -341 -238 -647 -311 -727
-174 -1660 -78 -2095 214 -90 60 -180 156 -216 231 -26 51 -29 69 -29 153 0
89 2 99 34 158 114 209 407 372 821 455 112 23 319 51 440 60 108 8 438 6 556
-3z"/>
<path d="M3155 4214 c-377 -29 -661 -95 -868 -202 -293 -150 -289 -280 13
-436 517 -267 1613 -267 2130 0 159 82 230 152 230 226 0 34 -7 47 -55 97
-131 137 -436 246 -835 296 -119 15 -510 27 -615 19z"/>
<path d="M1552 2984 c3 -204 4 -210 30 -264 30 -61 102 -146 172 -204 l46 -37
0 258 -1 258 -66 45 c-37 25 -94 69 -126 99 l-58 54 3 -209z"/>
<path d="M5115 3133 c-33 -29 -88 -73 -122 -96 l-62 -42 -1 -258 0 -259 48 40
c97 82 162 166 187 241 12 38 15 86 13 238 l-3 190 -60 -54z"/>
<path d="M2070 2586 l0 -263 93 -35 c77 -31 125 -47 275 -94 10 -3 12 50 10
257 l-3 260 -130 43 c-71 24 -156 55 -187 69 l-58 26 0 -263z"/>
<path d="M4600 2823 c-30 -14 -113 -45 -185 -68 l-130 -43 -3 -261 -2 -260 47
14 c66 20 206 68 276 95 l57 23 0 263 c0 145 -1 264 -2 263 -2 0 -28 -12 -58
-26z"/>
<path d="M2720 2391 c0 -143 3 -261 8 -261 4 0 35 -5 69 -10 57 -9 375 -40
416 -40 16 0 17 19 17 259 l0 258 -102 7 c-112 8 -323 31 -375 42 l-33 7 0
-262z"/>
<path d="M3895 2635 c-44 -7 -151 -19 -237 -26 l-158 -13 0 -259 0 -259 88 7
c112 9 348 33 390 41 l32 6 0 259 c0 241 -1 259 -17 258 -10 -1 -54 -7 -98
-14z"/>
</g>
</svg>
