<svg xmlns="http://www.w3.org/2000/svg" xmlns:xlink="http://www.w3.org/1999/xlink" width="59.276" height="48.957" viewBox="0 0 59.276 48.957">
  <defs>
    <filter id="coin-light" x="0" y="0" width="59.276" height="48.957" filterUnits="userSpaceOnUse">
      <feOffset dy="3" input="SourceAlpha"/>
      <feGaussianBlur stdDeviation="3" result="blur"/>
      <feFlood flood-color="#ffd800" flood-opacity="0.78"/>
      <feComposite operator="in" in2="blur"/>
      <feComposite in="SourceGraphic"/>
    </filter>
  </defs>
  <g transform="matrix(1, 0, 0, 1, 0, 0)" filter="url(#coin-light)">
    <path id="coin-light-2" data-name="coin-light" d="M34.512,78.374a9.99,9.99,0,0,1-3.378,1.991,30.2,30.2,0,0,1-10.569,1.693,29.922,29.922,0,0,1-10.424-1.693,11.128,11.128,0,0,1-3.447-1.991,3.769,3.769,0,0,1,0-6.175,12.861,12.861,0,0,1,3.447-2.064,31.834,31.834,0,0,1,10.424-1.62,32.115,32.115,0,0,1,10.569,1.62A11.4,11.4,0,0,1,34.512,72.2a3.773,3.773,0,0,1,0,6.175ZM11.069,72.61A8.787,8.787,0,0,0,8.432,74.1a1.359,1.359,0,0,0,0,2.37,10.7,10.7,0,0,0,2.636,1.491,27.684,27.684,0,0,0,9.569,1.516,27.684,27.684,0,0,0,9.569-1.516,10.7,10.7,0,0,0,2.636-1.491,1.359,1.359,0,0,0,0-2.37,8.787,8.787,0,0,0-2.636-1.491,27.684,27.684,0,0,0-9.569-1.516A27.684,27.684,0,0,0,11.069,72.61ZM0,75.609C0,69.2,9.239,64,20.638,64s20.638,5.2,20.638,11.609v9.029c0,5.7-9.239,10.319-20.638,10.319S0,90.337,0,84.638Zm33.964,5.958c3.362-1.886,4.732-4.1,4.732-5.958s-1.37-4.071-4.732-5.958a27.768,27.768,0,0,0-13.326-3.144A27.785,27.785,0,0,0,7.31,69.651c-3.363,1.886-4.73,4.1-4.73,5.885,0,1.935,1.367,4.144,4.73,6.03a27.844,27.844,0,0,0,13.328,3,27.826,27.826,0,0,0,13.326-3ZM14.189,91.829c1.612.282,3.346.4,5.159.524V87.193a46.584,46.584,0,0,1-5.159-.556Zm-2.58-5.78a25.968,25.968,0,0,1-3.87-1.379v5.216a23.555,23.555,0,0,0,3.87,1.37ZM2.58,84.638c0,1.04.686,2.41,2.58,3.773V83.284a14.6,14.6,0,0,1-2.58-2.048Zm19.348,2.556v5.159c1.814-.129,3.475-.242,5.159-.524V86.637a46.584,46.584,0,0,1-5.159.556ZM38.7,81.236a17.785,17.785,0,0,1-2.58,2.048v5.127c1.894-1.362,2.58-2.733,2.58-3.773ZM29.667,91.257a23.555,23.555,0,0,0,3.87-1.37V84.67a25.647,25.647,0,0,1-3.87,1.379Z" transform="translate(9 -58)" fill="#ffd800" opacity="0.65"/>
  </g>
</svg>
